<svg xmlns="http://www.w3.org/2000/svg" xmlns:xlink="http://www.w3.org/1999/xlink" width="64" height="24" viewBox="0 0 64 24">
    <defs>
        <path id="a" d="M36.832.333h.358c1.68.023 3.036.349 4.103.685l-.804 3.284c-2.049-.826-3.856-.767-4.51-.693-1.324.151-1.928.742-1.942 1.295-.045 1.824 6.432 2.052 6.411 6.135-.016 3.218-3.16 5.294-7.967 5.294-2.047-.018-4.02-.392-5.087-.822l.828-3.391c1.064.434 2.399 1.01 4.7.979 1.316-.019 2.724-.478 2.739-1.516.005-.677-.591-1.164-2.373-1.923-1.735-.74-4.039-1.983-4.007-4.212.025-2.971 3.126-5.059 7.551-5.115zm12.19.283h3.904l3.693 15.475h-4.23l-.554-2.311h-5.87l-.951 2.311h-4.805l6.864-14.34c.33-.687 1.07-1.135 1.95-1.135zm.67 4.181l-2.41 5.811h3.796l-1.385-5.811zM23.459.616h4.577l-3.784 15.475h-4.576L23.458.616zm-6.768 0h4.806l-7.411 15.475H9.25L5.6 3.742c-.22-.761-.413-1.041-1.087-1.359C3.413 1.859 1.597 1.369 0 1.064L.107.616h7.787c.99 0 1.883.579 2.11 1.578l1.925 8.956L16.69.616z"/>
        <linearGradient id="b" x1="0%" x2="0%" y1="0%" y2="8533.334%">
            <stop offset="0%" stop-color="#231E5C"/>
            <stop offset="100%" stop-color="#044DA1"/>
        </linearGradient>
        <path id="d" d="M36.832.333h.358c1.68.023 3.036.349 4.103.685l-.804 3.284c-2.049-.826-3.856-.767-4.51-.693-1.324.151-1.928.742-1.942 1.295-.045 1.824 6.432 2.052 6.411 6.135-.016 3.218-3.16 5.294-7.967 5.294-2.047-.018-4.02-.392-5.087-.822l.828-3.391c1.064.434 2.399 1.01 4.7.979 1.316-.019 2.724-.478 2.739-1.516.005-.677-.591-1.164-2.373-1.923-1.735-.74-4.039-1.983-4.007-4.212.025-2.971 3.126-5.059 7.551-5.115zm12.19.283h3.904l3.693 15.475h-4.23l-.554-2.311h-5.87l-.951 2.311h-4.805l6.864-14.34c.33-.687 1.07-1.135 1.95-1.135zm.67 4.181l-2.41 5.811h3.796l-1.385-5.811zM23.459.616h4.577l-3.784 15.475h-4.576L23.458.616zm-6.768 0h4.806l-7.411 15.475H9.25L5.6 3.742c-.22-.761-.413-1.041-1.087-1.359C3.413 1.859 1.597 1.369 0 1.064L.107.616h7.787c.99 0 1.883.579 2.11 1.578l1.925 8.956L16.69.616z"/>
    </defs>
    <g fill="none" fill-rule="evenodd">
        <g transform="translate(6.857 3.33)">
            <mask id="c" fill="#fff">
                <use xlink:href="#a"/>
            </mask>
            <path fill="url(#b)" d="M0 16.333h57.905v-16H0z" mask="url(#c)"/>
        </g>
        <g transform="translate(6.857 3.33)">
            <mask id="e" fill="#fff">
                <use xlink:href="#d"/>
            </mask>
            <path fill="#FFF" d="M36.832.333c-4.425.056-7.526 2.144-7.55 5.115-.033 2.229 2.271 3.472 4.006 4.212 1.782.759 2.378 1.246 2.373 1.923-.015 1.038-1.423 1.497-2.739 1.516-2.301.031-3.636-.545-4.7-.979l-.828 3.391c1.068.43 3.04.804 5.087.822 4.807 0 7.951-2.076 7.967-5.294.02-4.083-6.456-4.311-6.411-6.135.014-.553.618-1.144 1.941-1.295.655-.074 2.462-.133 4.511.693l.804-3.284C40.226.682 38.87.356 37.19.333h-.358zm12.19.283c-.88 0-1.62.448-1.949 1.135l-6.864 14.34h4.805l.952-2.311h5.87l.553 2.311h4.23L52.926.616h-3.903zm.67 4.181l1.386 5.811h-3.796l2.41-5.811zM23.459.616l-3.783 15.475h4.576L28.035.616h-4.577zm-6.768 0L11.93 11.15l-1.927-8.956C9.777 1.195 8.885.616 7.893.616H.108L0 1.064c1.597.305 3.413.795 4.513 1.319.674.318.866.598 1.087 1.359l3.65 12.349h4.835L21.496.616H16.69z" mask="url(#e)"/>
        </g>
    </g>
</svg>
